<svg xmlns="http://www.w3.org/2000/svg" xmlns:xlink="http://www.w3.org/1999/xlink" width="500" zoomAndPan="magnify" viewBox="0 0 375 374.999991" height="500" preserveAspectRatio="xMidYMid meet" version="1.2"><defs><clipPath id="c0135a53c0"><path d="M 57.730469 57.730469 L 317.269531 57.730469 L 317.269531 317.269531 L 57.730469 317.269531 Z M 57.730469 57.730469 "/></clipPath><clipPath id="3e7f1c5d8c"><path d="M 187.5 57.730469 C 115.828125 57.730469 57.730469 115.828125 57.730469 187.5 C 57.730469 259.171875 115.828125 317.269531 187.5 317.269531 C 259.171875 317.269531 317.269531 259.171875 317.269531 187.5 C 317.269531 115.828125 259.171875 57.730469 187.5 57.730469 Z M 187.5 57.730469 "/></clipPath><clipPath id="7c7c791732"><path d="M 122.015625 88.050781 L 230.84375 88.050781 L 230.84375 213.792969 L 122.015625 213.792969 Z M 122.015625 88.050781 "/></clipPath><clipPath id="3ce4b3c245"><path d="M 156.890625 98.738281 L 247.195312 98.738281 L 247.195312 203.167969 L 156.890625 203.167969 Z M 156.890625 98.738281 "/></clipPath></defs><g id="0b1131fbd6"><g clip-rule="nonzero" clip-path="url(#c0135a53c0)"><g clip-rule="nonzero" clip-path="url(#3e7f1c5d8c)"><path style=" stroke:none;fill-rule:nonzero;fill:#ffffff;fill-opacity:1;" d="M 57.730469 57.730469 L 317.269531 57.730469 L 317.269531 317.269531 L 57.730469 317.269531 Z M 57.730469 57.730469 "/></g></g><g clip-rule="nonzero" clip-path="url(#7c7c791732)"><path style=" stroke:none;fill-rule:nonzero;fill:#253e7c;fill-opacity:1;" d="M 192.277344 206.707031 C 158.691406 206.707031 131.464844 181.730469 131.464844 150.921875 C 131.464844 120.109375 158.691406 95.132812 192.277344 95.132812 C 206.90625 95.132812 220.328125 99.871094 230.820312 107.765625 C 219.332031 95.625 203.058594 88.046875 185.007812 88.046875 C 150.21875 88.046875 122.015625 116.199219 122.015625 150.921875 C 122.015625 185.644531 150.21875 213.792969 185.007812 213.792969 C 203.058594 213.792969 219.332031 206.214844 230.820312 194.074219 C 220.328125 201.96875 206.90625 206.707031 192.277344 206.707031 "/></g><g clip-rule="nonzero" clip-path="url(#3ce4b3c245)"><path style=" stroke:none;fill-rule:nonzero;fill:#f26b17;fill-opacity:1;" d="M 188.933594 197.183594 C 216.785156 197.183594 239.367188 176.472656 239.367188 150.921875 C 239.367188 125.371094 216.785156 104.65625 188.933594 104.65625 C 176.804688 104.65625 165.671875 108.585938 156.972656 115.132812 C 166.496094 105.066406 179.992188 98.78125 194.960938 98.78125 C 223.8125 98.78125 247.203125 122.125 247.203125 150.921875 C 247.203125 179.714844 223.8125 203.0625 194.960938 203.0625 C 179.992188 203.0625 166.496094 196.777344 156.972656 186.707031 C 165.671875 193.253906 176.804688 197.183594 188.933594 197.183594 "/></g><path style=" stroke:none;fill-rule:nonzero;fill:#253e7c;fill-opacity:1;" d="M 196.269531 126.382812 L 196.269531 173.289062 C 200.046875 171.929688 203.625 170.152344 206.902344 167.992188 L 206.902344 116.746094 Z M 160.144531 173.4375 C 163.566406 174.640625 167.128906 175.5 170.777344 175.988281 L 170.777344 139.269531 L 160.144531 145.859375 Z M 178.207031 176.460938 C 181.796875 176.445312 185.363281 176.074219 188.839844 175.363281 L 188.839844 128.445312 L 178.207031 136.5 L 178.207031 176.460938 "/><path style=" stroke:none;fill-rule:nonzero;fill:#f26b17;fill-opacity:1;" d="M 233.324219 145.707031 L 217.152344 153.179688 L 221.234375 156.460938 C 217.984375 161.394531 213.511719 165.503906 208.292969 169.035156 C 187.582031 183.054688 156.132812 181.390625 137.339844 160.019531 C 141.578125 166.257812 146.863281 171.511719 153.050781 175.644531 C 159.023438 179.632812 165.582031 182.40625 172.542969 183.890625 C 179.5 185.371094 186.511719 185.488281 193.382812 184.234375 C 200.496094 182.9375 207.140625 180.222656 213.132812 176.164062 C 218.902344 172.261719 223.738281 167.332031 227.519531 161.511719 L 231.472656 164.691406 L 233.324219 145.707031 "/><g style="fill:#2b2b2b;fill-opacity:1;"><g transform="translate(78.91883, 240.019386)"><path style="stroke:none" d="M 9.34375 0.265625 C 7.75 0.265625 6.304688 -0.078125 5.015625 -0.765625 C 3.722656 -1.460938 2.707031 -2.425781 1.96875 -3.65625 C 1.238281 -4.882812 0.875 -6.269531 0.875 -7.8125 C 0.875 -9.363281 1.238281 -10.753906 1.96875 -11.984375 C 2.707031 -13.210938 3.722656 -14.171875 5.015625 -14.859375 C 6.304688 -15.554688 7.753906 -15.90625 9.359375 -15.90625 C 10.710938 -15.90625 11.9375 -15.664062 13.03125 -15.1875 C 14.132812 -14.71875 15.054688 -14.035156 15.796875 -13.140625 L 13.46875 -11 C 12.414062 -12.21875 11.109375 -12.828125 9.546875 -12.828125 C 8.578125 -12.828125 7.710938 -12.613281 6.953125 -12.1875 C 6.191406 -11.757812 5.597656 -11.164062 5.171875 -10.40625 C 4.742188 -9.644531 4.53125 -8.78125 4.53125 -7.8125 C 4.53125 -6.851562 4.742188 -5.992188 5.171875 -5.234375 C 5.597656 -4.472656 6.191406 -3.878906 6.953125 -3.453125 C 7.710938 -3.023438 8.578125 -2.8125 9.546875 -2.8125 C 11.109375 -2.8125 12.414062 -3.429688 13.46875 -4.671875 L 15.796875 -2.53125 C 15.054688 -1.613281 14.132812 -0.914062 13.03125 -0.4375 C 11.925781 0.03125 10.695312 0.265625 9.34375 0.265625 Z M 9.34375 0.265625 "/></g></g><g style="fill:#2b2b2b;fill-opacity:1;"><g transform="translate(98.193352, 240.019386)"><path style="stroke:none" d="M 12.15625 -3.34375 L 4.890625 -3.34375 L 3.515625 0 L -0.203125 0 L 6.765625 -15.640625 L 10.34375 -15.640625 L 17.34375 0 L 13.546875 0 Z M 11.015625 -6.09375 L 8.53125 -12.09375 L 6.0625 -6.09375 Z M 11.015625 -6.09375 "/></g></g><g style="fill:#2b2b2b;fill-opacity:1;"><g transform="translate(118.204859, 240.019386)"><path style="stroke:none" d="M 1.859375 -15.640625 L 5.46875 -15.640625 L 5.46875 -2.953125 L 13.3125 -2.953125 L 13.3125 0 L 1.859375 0 Z M 1.859375 -15.640625 "/></g></g><g style="fill:#2b2b2b;fill-opacity:1;"><g transform="translate(134.598456, 240.019386)"><path style="stroke:none" d="M 9.34375 0.265625 C 7.75 0.265625 6.304688 -0.078125 5.015625 -0.765625 C 3.722656 -1.460938 2.707031 -2.425781 1.96875 -3.65625 C 1.238281 -4.882812 0.875 -6.269531 0.875 -7.8125 C 0.875 -9.363281 1.238281 -10.753906 1.96875 -11.984375 C 2.707031 -13.210938 3.722656 -14.171875 5.015625 -14.859375 C 6.304688 -15.554688 7.753906 -15.90625 9.359375 -15.90625 C 10.710938 -15.90625 11.9375 -15.664062 13.03125 -15.1875 C 14.132812 -14.71875 15.054688 -14.035156 15.796875 -13.140625 L 13.46875 -11 C 12.414062 -12.21875 11.109375 -12.828125 9.546875 -12.828125 C 8.578125 -12.828125 7.710938 -12.613281 6.953125 -12.1875 C 6.191406 -11.757812 5.597656 -11.164062 5.171875 -10.40625 C 4.742188 -9.644531 4.53125 -8.78125 4.53125 -7.8125 C 4.53125 -6.851562 4.742188 -5.992188 5.171875 -5.234375 C 5.597656 -4.472656 6.191406 -3.878906 6.953125 -3.453125 C 7.710938 -3.023438 8.578125 -2.8125 9.546875 -2.8125 C 11.109375 -2.8125 12.414062 -3.429688 13.46875 -4.671875 L 15.796875 -2.53125 C 15.054688 -1.613281 14.132812 -0.914062 13.03125 -0.4375 C 11.925781 0.03125 10.695312 0.265625 9.34375 0.265625 Z M 9.34375 0.265625 "/></g></g><g style="fill:#2b2b2b;fill-opacity:1;"><g transform="translate(153.872978, 240.019386)"><path style="stroke:none" d="M 8.796875 0.265625 C 6.566406 0.265625 4.828125 -0.347656 3.578125 -1.578125 C 2.335938 -2.816406 1.71875 -4.582031 1.71875 -6.875 L 1.71875 -15.640625 L 5.34375 -15.640625 L 5.34375 -7.015625 C 5.34375 -4.210938 6.503906 -2.8125 8.828125 -2.8125 C 9.960938 -2.8125 10.828125 -3.148438 11.421875 -3.828125 C 12.015625 -4.503906 12.3125 -5.566406 12.3125 -7.015625 L 12.3125 -15.640625 L 15.890625 -15.640625 L 15.890625 -6.875 C 15.890625 -4.582031 15.265625 -2.816406 14.015625 -1.578125 C 12.773438 -0.347656 11.035156 0.265625 8.796875 0.265625 Z M 8.796875 0.265625 "/></g></g><g style="fill:#2b2b2b;fill-opacity:1;"><g transform="translate(174.375804, 240.019386)"><path style="stroke:none" d="M 1.859375 -15.640625 L 5.46875 -15.640625 L 5.46875 -2.953125 L 13.3125 -2.953125 L 13.3125 0 L 1.859375 0 Z M 1.859375 -15.640625 "/></g></g><g style="fill:#2b2b2b;fill-opacity:1;"><g transform="translate(190.769402, 240.019386)"><path style="stroke:none" d="M 12.15625 -3.34375 L 4.890625 -3.34375 L 3.515625 0 L -0.203125 0 L 6.765625 -15.640625 L 10.34375 -15.640625 L 17.34375 0 L 13.546875 0 Z M 11.015625 -6.09375 L 8.53125 -12.09375 L 6.0625 -6.09375 Z M 11.015625 -6.09375 "/></g></g><g style="fill:#2b2b2b;fill-opacity:1;"><g transform="translate(210.780908, 240.019386)"><path style="stroke:none" d="M 1.859375 -15.640625 L 8.953125 -15.640625 C 10.648438 -15.640625 12.148438 -15.316406 13.453125 -14.671875 C 14.765625 -14.023438 15.78125 -13.113281 16.5 -11.9375 C 17.21875 -10.757812 17.578125 -9.382812 17.578125 -7.8125 C 17.578125 -6.25 17.21875 -4.878906 16.5 -3.703125 C 15.78125 -2.523438 14.765625 -1.613281 13.453125 -0.96875 C 12.148438 -0.320312 10.648438 0 8.953125 0 L 1.859375 0 Z M 8.78125 -2.96875 C 10.34375 -2.96875 11.585938 -3.398438 12.515625 -4.265625 C 13.453125 -5.140625 13.921875 -6.320312 13.921875 -7.8125 C 13.921875 -9.300781 13.453125 -10.484375 12.515625 -11.359375 C 11.585938 -12.234375 10.34375 -12.671875 8.78125 -12.671875 L 5.46875 -12.671875 L 5.46875 -2.96875 Z M 8.78125 -2.96875 "/></g></g><g style="fill:#2b2b2b;fill-opacity:1;"><g transform="translate(232.132386, 240.019386)"><path style="stroke:none" d="M 9.421875 0.265625 C 7.804688 0.265625 6.34375 -0.0820312 5.03125 -0.78125 C 3.726562 -1.476562 2.707031 -2.441406 1.96875 -3.671875 C 1.238281 -4.898438 0.875 -6.28125 0.875 -7.8125 C 0.875 -9.351562 1.238281 -10.738281 1.96875 -11.96875 C 2.707031 -13.195312 3.726562 -14.160156 5.03125 -14.859375 C 6.34375 -15.554688 7.804688 -15.90625 9.421875 -15.90625 C 11.046875 -15.90625 12.503906 -15.554688 13.796875 -14.859375 C 15.097656 -14.160156 16.117188 -13.195312 16.859375 -11.96875 C 17.609375 -10.738281 17.984375 -9.351562 17.984375 -7.8125 C 17.984375 -6.28125 17.609375 -4.898438 16.859375 -3.671875 C 16.117188 -2.441406 15.097656 -1.476562 13.796875 -0.78125 C 12.503906 -0.0820312 11.046875 0.265625 9.421875 0.265625 Z M 9.421875 -2.8125 C 10.347656 -2.8125 11.179688 -3.023438 11.921875 -3.453125 C 12.671875 -3.878906 13.257812 -4.472656 13.6875 -5.234375 C 14.113281 -5.992188 14.328125 -6.851562 14.328125 -7.8125 C 14.328125 -8.78125 14.113281 -9.644531 13.6875 -10.40625 C 13.257812 -11.164062 12.671875 -11.757812 11.921875 -12.1875 C 11.179688 -12.613281 10.347656 -12.828125 9.421875 -12.828125 C 8.503906 -12.828125 7.671875 -12.613281 6.921875 -12.1875 C 6.179688 -11.757812 5.597656 -11.164062 5.171875 -10.40625 C 4.742188 -9.644531 4.53125 -8.78125 4.53125 -7.8125 C 4.53125 -6.851562 4.742188 -5.992188 5.171875 -5.234375 C 5.597656 -4.472656 6.179688 -3.878906 6.921875 -3.453125 C 7.671875 -3.023438 8.503906 -2.8125 9.421875 -2.8125 Z M 9.421875 -2.8125 "/></g></g><g style="fill:#2b2b2b;fill-opacity:1;"><g transform="translate(253.885848, 240.019386)"><path style="stroke:none" d="M 11.8125 0 L 8.796875 -4.359375 L 5.46875 -4.359375 L 5.46875 0 L 1.859375 0 L 1.859375 -15.640625 L 8.625 -15.640625 C 10.007812 -15.640625 11.210938 -15.40625 12.234375 -14.9375 C 13.253906 -14.476562 14.039062 -13.820312 14.59375 -12.96875 C 15.144531 -12.125 15.421875 -11.125 15.421875 -9.96875 C 15.421875 -8.800781 15.140625 -7.796875 14.578125 -6.953125 C 14.015625 -6.117188 13.222656 -5.476562 12.203125 -5.03125 L 15.703125 0 Z M 11.75 -9.96875 C 11.75 -10.84375 11.460938 -11.515625 10.890625 -11.984375 C 10.328125 -12.453125 9.503906 -12.6875 8.421875 -12.6875 L 5.46875 -12.6875 L 5.46875 -7.234375 L 8.421875 -7.234375 C 9.503906 -7.234375 10.328125 -7.472656 10.890625 -7.953125 C 11.460938 -8.429688 11.75 -9.101562 11.75 -9.96875 Z M 11.75 -9.96875 "/></g></g><g style="fill:#2b2b2b;fill-opacity:1;"><g transform="translate(273.205024, 240.019386)"><path style="stroke:none" d="M 12.15625 -3.34375 L 4.890625 -3.34375 L 3.515625 0 L -0.203125 0 L 6.765625 -15.640625 L 10.34375 -15.640625 L 17.34375 0 L 13.546875 0 Z M 11.015625 -6.09375 L 8.53125 -12.09375 L 6.0625 -6.09375 Z M 11.015625 -6.09375 "/></g></g><g style="fill:#2b2b2b;fill-opacity:1;"><g transform="translate(117.245221, 260.512378)"><path style="stroke:none" d="M 2.640625 -6.15625 L 2.640625 -4.15625 L 6.140625 -4.15625 L 6.140625 -2.75 L 2.640625 -2.75 L 2.640625 0 L 0.890625 0 L 0.890625 -7.5625 L 6.609375 -7.5625 L 6.609375 -6.15625 Z M 2.640625 -6.15625 "/></g></g><g style="fill:#2b2b2b;fill-opacity:1;"><g transform="translate(131.219465, 260.512378)"><path style="stroke:none" d="M 0.890625 -7.5625 L 2.640625 -7.5625 L 2.640625 0 L 0.890625 0 Z M 0.890625 -7.5625 "/></g></g><g style="fill:#2b2b2b;fill-opacity:1;"><g transform="translate(141.835982, 260.512378)"><path style="stroke:none" d="M 7.828125 -7.5625 L 7.828125 0 L 6.390625 0 L 2.625 -4.59375 L 2.625 0 L 0.890625 0 L 0.890625 -7.5625 L 2.34375 -7.5625 L 6.09375 -2.96875 L 6.09375 -7.5625 Z M 7.828125 -7.5625 "/></g></g><g style="fill:#2b2b2b;fill-opacity:1;"><g transform="translate(157.634836, 260.512378)"><path style="stroke:none" d="M 5.875 -1.625 L 2.359375 -1.625 L 1.6875 0 L -0.09375 0 L 3.265625 -7.5625 L 5 -7.5625 L 8.375 0 L 6.546875 0 Z M 5.328125 -2.953125 L 4.125 -5.84375 L 2.921875 -2.953125 Z M 5.328125 -2.953125 "/></g></g><g style="fill:#2b2b2b;fill-opacity:1;"><g transform="translate(172.980235, 260.512378)"><path style="stroke:none" d="M 7.828125 -7.5625 L 7.828125 0 L 6.390625 0 L 2.625 -4.59375 L 2.625 0 L 0.890625 0 L 0.890625 -7.5625 L 2.34375 -7.5625 L 6.09375 -2.96875 L 6.09375 -7.5625 Z M 7.828125 -7.5625 "/></g></g><g style="fill:#2b2b2b;fill-opacity:1;"><g transform="translate(188.779088, 260.512378)"><path style="stroke:none" d="M 4.515625 0.125 C 3.742188 0.125 3.046875 -0.0390625 2.421875 -0.375 C 1.796875 -0.707031 1.304688 -1.171875 0.953125 -1.765625 C 0.597656 -2.359375 0.421875 -3.03125 0.421875 -3.78125 C 0.421875 -4.53125 0.597656 -5.203125 0.953125 -5.796875 C 1.304688 -6.390625 1.796875 -6.851562 2.421875 -7.1875 C 3.046875 -7.519531 3.75 -7.6875 4.53125 -7.6875 C 5.175781 -7.6875 5.765625 -7.570312 6.296875 -7.34375 C 6.828125 -7.113281 7.273438 -6.78125 7.640625 -6.34375 L 6.515625 -5.3125 C 6.003906 -5.90625 5.367188 -6.203125 4.609375 -6.203125 C 4.140625 -6.203125 3.722656 -6.097656 3.359375 -5.890625 C 2.992188 -5.679688 2.707031 -5.394531 2.5 -5.03125 C 2.289062 -4.664062 2.1875 -4.25 2.1875 -3.78125 C 2.1875 -3.3125 2.289062 -2.890625 2.5 -2.515625 C 2.707031 -2.148438 2.992188 -1.863281 3.359375 -1.65625 C 3.722656 -1.457031 4.140625 -1.359375 4.609375 -1.359375 C 5.367188 -1.359375 6.003906 -1.65625 6.515625 -2.25 L 7.640625 -1.21875 C 7.273438 -0.78125 6.828125 -0.445312 6.296875 -0.21875 C 5.765625 0.0078125 5.171875 0.125 4.515625 0.125 Z M 4.515625 0.125 "/></g></g><g style="fill:#2b2b2b;fill-opacity:1;"><g transform="translate(203.768201, 260.512378)"><path style="stroke:none" d="M 6.75 -1.40625 L 6.75 0 L 0.890625 0 L 0.890625 -7.5625 L 6.609375 -7.5625 L 6.609375 -6.15625 L 2.640625 -6.15625 L 2.640625 -4.515625 L 6.140625 -4.515625 L 6.140625 -3.15625 L 2.640625 -3.15625 L 2.640625 -1.40625 Z M 6.75 -1.40625 "/></g></g><g style="fill:#2b2b2b;fill-opacity:1;"><g transform="translate(218.087929, 260.512378)"><path style="stroke:none" d="M 0.890625 -7.5625 L 2.640625 -7.5625 L 2.640625 0 L 0.890625 0 Z M 0.890625 -7.5625 "/></g></g><g style="fill:#2b2b2b;fill-opacity:1;"><g transform="translate(228.704446, 260.512378)"><path style="stroke:none" d="M 5.71875 0 L 4.25 -2.109375 L 2.640625 -2.109375 L 2.640625 0 L 0.890625 0 L 0.890625 -7.5625 L 4.171875 -7.5625 C 4.835938 -7.5625 5.414062 -7.445312 5.90625 -7.21875 C 6.40625 -7 6.785156 -6.679688 7.046875 -6.265625 C 7.316406 -5.859375 7.453125 -5.375 7.453125 -4.8125 C 7.453125 -4.25 7.316406 -3.765625 7.046875 -3.359375 C 6.773438 -2.953125 6.390625 -2.640625 5.890625 -2.421875 L 7.59375 0 Z M 5.671875 -4.8125 C 5.671875 -5.238281 5.535156 -5.5625 5.265625 -5.78125 C 4.992188 -6.007812 4.597656 -6.125 4.078125 -6.125 L 2.640625 -6.125 L 2.640625 -3.5 L 4.078125 -3.5 C 4.597656 -3.5 4.992188 -3.613281 5.265625 -3.84375 C 5.535156 -4.070312 5.671875 -4.394531 5.671875 -4.8125 Z M 5.671875 -4.8125 "/></g></g><g style="fill:#2b2b2b;fill-opacity:1;"><g transform="translate(243.715153, 260.512378)"><path style="stroke:none" d="M 5.875 -1.625 L 2.359375 -1.625 L 1.6875 0 L -0.09375 0 L 3.265625 -7.5625 L 5 -7.5625 L 8.375 0 L 6.546875 0 Z M 5.328125 -2.953125 L 4.125 -5.84375 L 2.921875 -2.953125 Z M 5.328125 -2.953125 "/></g></g></g></svg>